<svg width="412" height="633" viewBox="0 0 412 633" fill="none" xmlns="http://www.w3.org/2000/svg">
<rect width="412" height="633" rx="10" fill="#F3F8F5"/>
<path d="M28.18 37.7577V33.6977H30.4C31.98 33.6977 32.68 34.4577 32.68 35.7377C32.68 36.9777 31.98 37.7577 30.4 37.7577H28.18ZM35.56 35.7377C35.56 33.3177 33.88 31.4177 30.52 31.4177H25.38V45.3777H28.18V40.0177H30.52C34.12 40.0177 35.56 37.8577 35.56 35.7377ZM40.348 39.8577C40.348 37.7177 41.348 37.0777 43.008 37.0777H43.748V34.1377C42.208 34.1377 41.048 34.8777 40.348 36.0177V34.2977H37.548V45.3777H40.348V39.8577ZM56.3339 39.8377C56.3339 36.3377 53.8339 34.1177 50.6339 34.1177C47.4339 34.1177 44.9339 36.3377 44.9339 39.8377C44.9339 43.3177 47.3539 45.5577 50.5539 45.5577C53.7739 45.5577 56.3339 43.3177 56.3339 39.8377ZM47.7739 39.8377C47.7739 37.6177 49.1139 36.5577 50.5939 36.5577C52.0739 36.5577 53.4539 37.6177 53.4539 39.8377C53.4539 42.0377 52.0339 43.1177 50.5539 43.1177C49.0539 43.1177 47.7739 42.0377 47.7739 39.8377ZM57.6678 39.7977C57.6678 43.2577 59.9078 45.5577 62.7278 45.5577C64.4678 45.5577 65.7278 44.6977 66.3878 43.7377V45.4577C66.3878 47.5177 65.1878 48.3977 63.6478 48.3977C62.2478 48.3977 61.2078 47.7377 60.9278 46.7377H58.1478C58.4278 49.2777 60.6078 50.8377 63.7278 50.8377C67.3678 50.8377 69.2078 48.4577 69.2078 45.4577V34.2977H66.3878V35.8777C65.7278 34.9177 64.4678 34.1177 62.7278 34.1177C59.9078 34.1177 57.6678 36.3377 57.6678 39.7977ZM66.3878 39.8377C66.3878 41.9377 64.9878 43.0977 63.4478 43.0977C61.9478 43.0977 60.5278 41.8977 60.5278 39.7977C60.5278 37.6977 61.9478 36.5777 63.4478 36.5777C64.9878 36.5777 66.3878 37.7377 66.3878 39.8377ZM74.7425 39.8577C74.7425 37.7177 75.7425 37.0777 77.4025 37.0777H78.1425V34.1377C76.6025 34.1377 75.4425 34.8777 74.7425 36.0177V34.2977H71.9425V45.3777H74.7425V39.8577ZM84.7884 36.4177C86.2284 36.4177 87.3884 37.3377 87.4284 38.7977H82.1684C82.3884 37.2777 83.4484 36.4177 84.7884 36.4177ZM90.0484 41.8977H87.0284C86.6684 42.6377 86.0084 43.2377 84.8084 43.2377C83.4084 43.2377 82.2884 42.3177 82.1484 40.6777H90.2484C90.3084 40.3177 90.3284 39.9577 90.3284 39.5977C90.3284 36.2977 88.0684 34.1177 84.8684 34.1177C81.5884 34.1177 79.3084 36.3377 79.3084 39.8377C79.3084 43.3177 81.6484 45.5577 84.8684 45.5577C87.6084 45.5577 89.4484 43.9377 90.0484 41.8977ZM100.972 42.2177C100.892 38.1577 94.7522 39.4177 94.7522 37.3977C94.7522 36.7577 95.2922 36.3377 96.3322 36.3377C97.4322 36.3377 98.1122 36.9177 98.1922 37.7777H100.872C100.712 35.5777 99.0922 34.1177 96.4122 34.1177C93.6722 34.1177 92.0322 35.5977 92.0322 37.4377C92.0322 41.4977 98.2922 40.2377 98.2922 42.2177C98.2922 42.8577 97.6922 43.3577 96.5922 43.3577C95.4722 43.3577 94.6922 42.7177 94.5922 41.8777H91.7722C91.8922 43.9377 93.8322 45.5577 96.6122 45.5577C99.3122 45.5577 100.972 44.1177 100.972 42.2177ZM111.871 42.2177C111.791 38.1577 105.651 39.4177 105.651 37.3977C105.651 36.7577 106.191 36.3377 107.231 36.3377C108.331 36.3377 109.011 36.9177 109.091 37.7777H111.771C111.611 35.5777 109.991 34.1177 107.311 34.1177C104.571 34.1177 102.931 35.5977 102.931 37.4377C102.931 41.4977 109.191 40.2377 109.191 42.2177C109.191 42.8577 108.591 43.3577 107.491 43.3577C106.371 43.3577 105.591 42.7177 105.491 41.8777H102.671C102.791 43.9377 104.731 45.5577 107.511 45.5577C110.211 45.5577 111.871 44.1177 111.871 42.2177ZM124.869 39.8377C124.869 36.3377 122.369 34.1177 119.169 34.1177C115.969 34.1177 113.469 36.3377 113.469 39.8377C113.469 43.3177 115.889 45.5577 119.089 45.5577C122.309 45.5577 124.869 43.3177 124.869 39.8377ZM116.309 39.8377C116.309 37.6177 117.649 36.5577 119.129 36.5577C120.609 36.5577 121.989 37.6177 121.989 39.8377C121.989 42.0377 120.569 43.1177 119.089 43.1177C117.589 43.1177 116.309 42.0377 116.309 39.8377ZM134.489 35.8977V34.2977H131.689V50.6577H134.489V43.7977C135.169 44.6977 136.409 45.5577 138.149 45.5577C140.989 45.5577 143.209 43.2577 143.209 39.7977C143.209 36.3377 140.989 34.1177 138.149 34.1177C136.429 34.1177 135.149 34.9577 134.489 35.8977ZM140.349 39.7977C140.349 41.8977 138.929 43.0977 137.409 43.0977C135.909 43.0977 134.489 41.9377 134.489 39.8377C134.489 37.7377 135.909 36.5777 137.409 36.5777C138.929 36.5777 140.349 37.6977 140.349 39.7977ZM144.523 39.7977C144.523 43.2577 146.763 45.5577 149.563 45.5577C151.323 45.5577 152.583 44.7177 153.243 43.7577V45.3777H156.063V34.2977H153.243V35.8777C152.583 34.9577 151.363 34.1177 149.583 34.1177C146.763 34.1177 144.523 36.3377 144.523 39.7977ZM153.243 39.8377C153.243 41.9377 151.843 43.0977 150.303 43.0977C148.803 43.0977 147.383 41.8977 147.383 39.7977C147.383 37.6977 148.803 36.5777 150.303 36.5777C151.843 36.5777 153.243 37.7377 153.243 39.8377ZM161.598 39.8577C161.598 37.7177 162.598 37.0777 164.258 37.0777H164.998V34.1377C163.458 34.1377 162.298 34.8777 161.598 36.0177V34.2977H158.798V45.3777H161.598V39.8577ZM166.164 39.7977C166.164 43.2577 168.404 45.5577 171.204 45.5577C172.964 45.5577 174.224 44.7177 174.884 43.7577V45.3777H177.704V34.2977H174.884V35.8777C174.224 34.9577 173.004 34.1177 171.224 34.1177C168.404 34.1177 166.164 36.3377 166.164 39.7977ZM174.884 39.8377C174.884 41.9377 173.484 43.0977 171.944 43.0977C170.444 43.0977 169.024 41.8977 169.024 39.7977C169.024 37.6977 170.444 36.5777 171.944 36.5777C173.484 36.5777 174.884 37.7377 174.884 39.8377ZM184.484 39.8377C184.484 43.3177 186.764 45.5577 189.964 45.5577C192.724 45.5577 194.584 43.9977 195.184 41.6377H192.164C191.824 42.6377 191.104 43.1577 189.944 43.1577C188.384 43.1577 187.344 41.9977 187.344 39.8377C187.344 37.6777 188.384 36.4977 189.944 36.4977C191.104 36.4977 191.844 37.0977 192.164 38.0377H195.184C194.584 35.5577 192.724 34.1177 189.964 34.1177C186.764 34.1177 184.484 36.3577 184.484 39.8377ZM201.995 36.4177C203.435 36.4177 204.595 37.3377 204.635 38.7977H199.375C199.595 37.2777 200.655 36.4177 201.995 36.4177ZM207.255 41.8977H204.235C203.875 42.6377 203.215 43.2377 202.015 43.2377C200.615 43.2377 199.495 42.3177 199.355 40.6777H207.455C207.515 40.3177 207.535 39.9577 207.535 39.5977C207.535 36.2977 205.275 34.1177 202.075 34.1177C198.795 34.1177 196.515 36.3377 196.515 39.8377C196.515 43.3177 198.855 45.5577 202.075 45.5577C204.815 45.5577 206.655 43.9377 207.255 41.8977ZM212.379 39.8577C212.379 37.7177 213.379 37.0777 215.039 37.0777H215.779V34.1377C214.239 34.1377 213.079 34.8777 212.379 36.0177V34.2977H209.579V45.3777H212.379V39.8577ZM218.105 41.9377C218.105 44.4777 219.525 45.3777 221.645 45.3777H223.405V43.0177H222.105C221.225 43.0177 220.925 42.6977 220.925 41.9577V36.5977H223.405V34.2977H220.925V31.5577H218.105V34.2977H216.785V36.5977H218.105V41.9377ZM225.419 45.3777H228.219V34.2977H225.419V45.3777ZM226.839 32.9777C227.819 32.9777 228.559 32.2577 228.559 31.3377C228.559 30.4177 227.819 29.6977 226.839 29.6977C225.839 29.6977 225.119 30.4177 225.119 31.3377C225.119 32.2577 225.839 32.9777 226.839 32.9777ZM231.285 45.3777H234.125V36.5977H236.065V34.2977H234.125V33.8377C234.125 32.5977 234.585 32.1577 235.945 32.1977V29.8377C232.825 29.7577 231.285 31.0177 231.285 33.7377V34.2977H230.025V36.5977H231.285V45.3777ZM237.88 45.3777H240.68V34.2977H237.88V45.3777ZM239.3 32.9777C240.28 32.9777 241.02 32.2577 241.02 31.3377C241.02 30.4177 240.28 29.6977 239.3 29.6977C238.3 29.6977 237.58 30.4177 237.58 31.3377C237.58 32.2577 238.3 32.9777 239.3 32.9777ZM242.726 39.8377C242.726 43.3177 245.006 45.5577 248.206 45.5577C250.966 45.5577 252.826 43.9977 253.426 41.6377H250.406C250.066 42.6377 249.346 43.1577 248.186 43.1577C246.626 43.1577 245.586 41.9977 245.586 39.8377C245.586 37.6777 246.626 36.4977 248.186 36.4977C249.346 36.4977 250.086 37.0977 250.406 38.0377H253.426C252.826 35.5577 250.966 34.1177 248.206 34.1177C245.006 34.1177 242.726 36.3577 242.726 39.8377ZM254.758 39.7977C254.758 43.2577 256.998 45.5577 259.798 45.5577C261.558 45.5577 262.818 44.7177 263.478 43.7577V45.3777H266.298V34.2977H263.478V35.8777C262.818 34.9577 261.598 34.1177 259.818 34.1177C256.998 34.1177 254.758 36.3377 254.758 39.7977ZM263.478 39.8377C263.478 41.9377 262.078 43.0977 260.538 43.0977C259.038 43.0977 257.618 41.8977 257.618 39.7977C257.618 37.6977 259.038 36.5777 260.538 36.5777C262.078 36.5777 263.478 37.7377 263.478 39.8377ZM268.312 39.8377C268.312 42.9777 270.172 45.0977 272.872 45.4977V47.7977H274.112C274.712 47.7977 275.092 47.9177 275.092 48.4177C275.092 48.9177 274.712 49.0577 274.112 49.0577H271.732V50.6977H274.572C275.972 50.6977 277.232 49.9577 277.232 48.4577C277.232 46.9577 275.972 46.2777 274.632 46.2777V45.4977C276.932 45.2177 278.472 43.7577 279.012 41.6377H275.992C275.652 42.6377 274.932 43.1577 273.772 43.1577C272.212 43.1577 271.172 41.9977 271.172 39.8377C271.172 37.6777 272.212 36.4977 273.772 36.4977C274.932 36.4977 275.672 37.0977 275.992 38.0377H279.012C278.412 35.5577 276.552 34.1177 273.792 34.1177C270.592 34.1177 268.312 36.3577 268.312 39.8377ZM280.344 39.7977C280.344 43.2577 282.584 45.5577 285.384 45.5577C287.144 45.5577 288.404 44.7177 289.064 43.7577V45.3777H291.884V34.2977H289.064V35.8777C288.404 34.9577 287.184 34.1177 285.404 34.1177C282.584 34.1177 280.344 36.3377 280.344 39.7977ZM289.064 39.8377C289.064 41.9377 287.664 43.0977 286.124 43.0977C284.624 43.0977 283.204 41.8977 283.204 39.7977C283.204 37.6977 284.624 36.5777 286.124 36.5777C287.664 36.5777 289.064 37.7377 289.064 39.8377ZM282.904 33.2377H284.384C284.484 32.6377 284.804 32.3577 285.264 32.3577C286.064 32.3577 286.584 33.2577 287.724 33.2577C289.004 33.2577 289.944 32.4577 290.204 30.6377H288.704C288.624 31.2377 288.304 31.4977 287.844 31.4977C287.044 31.4977 286.524 30.6177 285.384 30.6177C284.104 30.6177 283.164 31.4177 282.904 33.2377ZM305.318 39.8377C305.318 36.3377 302.818 34.1177 299.618 34.1177C296.418 34.1177 293.918 36.3377 293.918 39.8377C293.918 43.3177 296.338 45.5577 299.538 45.5577C302.758 45.5577 305.318 43.3177 305.318 39.8377ZM296.758 39.8377C296.758 37.6177 298.098 36.5577 299.578 36.5577C301.058 36.5577 302.438 37.6177 302.438 39.8377C302.438 42.0377 301.018 43.1177 299.538 43.1177C298.038 43.1177 296.758 42.0377 296.758 39.8377Z" fill="#4D4D4D"/>
<path d="M61.008 392.055H57.104V403.223H61.008C64.576 403.223 66.896 401.031 66.896 397.655C66.896 394.263 64.576 392.055 61.008 392.055ZM59.344 401.319V393.943H60.928C63.28 393.943 64.608 395.335 64.608 397.655C64.608 399.975 63.28 401.319 60.928 401.319H59.344ZM67.9967 398.759C67.9967 401.527 69.7888 403.367 72.0288 403.367C73.4368 403.367 74.4448 402.695 74.9728 401.927V403.223H77.2288V394.359H74.9728V395.623C74.4448 394.887 73.4688 394.215 72.0448 394.215C69.7888 394.215 67.9967 395.991 67.9967 398.759ZM74.9728 398.791C74.9728 400.471 73.8528 401.399 72.6208 401.399C71.4208 401.399 70.2848 400.439 70.2848 398.759C70.2848 397.079 71.4208 396.183 72.6208 396.183C73.8528 396.183 74.9728 397.111 74.9728 398.791ZM79.7685 400.471C79.7685 402.503 80.9045 403.223 82.6005 403.223H84.0085V401.335H82.9685C82.2645 401.335 82.0245 401.079 82.0245 400.487V396.199H84.0085V394.359H82.0245V392.167H79.7685V394.359H78.7125V396.199H79.7685V400.471ZM85.0436 398.759C85.0436 401.527 86.8356 403.367 89.0756 403.367C90.4836 403.367 91.4916 402.695 92.0196 401.927V403.223H94.2756V394.359H92.0196V395.623C91.4916 394.887 90.5156 394.215 89.0916 394.215C86.8356 394.215 85.0436 395.991 85.0436 398.759ZM92.0196 398.791C92.0196 400.471 90.8996 401.399 89.6676 401.399C88.4676 401.399 87.3316 400.439 87.3316 398.759C87.3316 397.079 88.4676 396.183 89.6676 396.183C90.8996 396.183 92.0196 397.111 92.0196 398.791ZM99.6999 398.759C99.6999 401.527 101.492 403.367 103.748 403.367C105.14 403.367 106.132 402.727 106.66 401.911V403.223H108.932V391.383H106.66V395.591C106.052 394.759 104.932 394.215 103.764 394.215C101.492 394.215 99.6999 395.991 99.6999 398.759ZM106.676 398.791C106.676 400.471 105.556 401.399 104.324 401.399C103.124 401.399 101.988 400.439 101.988 398.759C101.988 397.079 103.124 396.183 104.324 396.183C105.556 396.183 106.676 397.111 106.676 398.791ZM114.928 396.055C116.08 396.055 117.008 396.791 117.04 397.959H112.832C113.008 396.743 113.856 396.055 114.928 396.055ZM119.136 400.439H116.72C116.432 401.031 115.904 401.511 114.944 401.511C113.824 401.511 112.928 400.775 112.816 399.463H119.296C119.344 399.175 119.36 398.887 119.36 398.599C119.36 395.959 117.552 394.215 114.992 394.215C112.368 394.215 110.544 395.991 110.544 398.791C110.544 401.575 112.416 403.367 114.992 403.367C117.184 403.367 118.656 402.071 119.136 400.439ZM124.807 403.223H127.047V394.359H124.807V403.223ZM125.943 393.303C126.727 393.303 127.319 392.727 127.319 391.991C127.319 391.255 126.727 390.679 125.943 390.679C125.143 390.679 124.567 391.255 124.567 391.991C124.567 392.727 125.143 393.303 125.943 393.303ZM135.468 403.223H137.708V398.023C137.708 395.575 136.236 394.231 134.172 394.231C133.036 394.231 132.076 394.711 131.5 395.463V394.359H129.26V403.223H131.5V398.327C131.5 396.903 132.284 396.135 133.5 396.135C134.684 396.135 135.468 396.903 135.468 398.327V403.223ZM139.934 403.223H142.174V394.359H139.934V403.223ZM139.118 392.135V393.735L142.798 392.055V390.231L139.118 392.135ZM143.903 398.791C143.903 401.575 145.727 403.367 148.287 403.367C150.495 403.367 151.983 402.119 152.463 400.231H150.047C149.775 401.031 149.199 401.447 148.271 401.447C147.023 401.447 146.191 400.519 146.191 398.791C146.191 397.063 147.023 396.119 148.271 396.119C149.199 396.119 149.791 396.599 150.047 397.351H152.463C151.983 395.367 150.495 394.215 148.287 394.215C145.727 394.215 143.903 396.007 143.903 398.791ZM154.104 403.223H156.344V394.359H154.104V403.223ZM155.24 393.303C156.024 393.303 156.616 392.727 156.616 391.991C156.616 391.255 156.024 390.679 155.24 390.679C154.44 390.679 153.864 391.255 153.864 391.991C153.864 392.727 154.44 393.303 155.24 393.303ZM167.117 398.791C167.117 395.991 165.117 394.215 162.557 394.215C159.997 394.215 157.997 395.991 157.997 398.791C157.997 401.575 159.933 403.367 162.493 403.367C165.069 403.367 167.117 401.575 167.117 398.791ZM160.269 398.791C160.269 397.015 161.341 396.167 162.525 396.167C163.709 396.167 164.813 397.015 164.813 398.791C164.813 400.551 163.677 401.415 162.493 401.415C161.293 401.415 160.269 400.551 160.269 398.791ZM171.112 402.023C171.112 401.287 170.536 400.711 169.752 400.711C168.936 400.711 168.36 401.287 168.36 402.023C168.36 402.759 168.936 403.335 169.752 403.335C170.536 403.335 171.112 402.759 171.112 402.023ZM171.112 395.399C171.112 394.663 170.536 394.087 169.752 394.087C168.936 394.087 168.36 394.663 168.36 395.399C168.36 396.135 168.936 396.711 169.752 396.711C170.536 396.711 171.112 396.135 171.112 395.399ZM176.488 403.095H184.184V401.879H178.68C180.744 400.199 183.848 397.751 183.848 394.871C183.848 392.727 182.44 391.447 180.264 391.447C178.184 391.447 176.632 392.727 176.536 395.191H177.944C178.008 393.735 178.776 392.695 180.28 392.695C181.848 392.695 182.408 393.655 182.408 394.935C182.408 397.303 179.528 399.607 176.488 402.055V403.095ZM185.835 394.567H187.259C187.403 393.447 188.219 392.679 189.579 392.679C190.971 392.679 191.707 393.447 191.707 394.551C191.707 395.895 190.667 396.487 188.731 396.503H188.347V397.719H188.715C190.795 397.719 191.931 398.343 191.931 399.975C191.931 401.159 191.195 402.071 189.643 402.071C188.107 402.071 187.211 401.127 187.067 399.895H185.659C185.835 402.135 187.467 403.303 189.659 403.303C192.075 403.303 193.323 401.895 193.323 400.103C193.323 398.439 192.411 397.447 191.067 397.127V397.047C192.283 396.775 193.115 395.735 193.115 394.407C193.115 392.743 191.883 391.431 189.627 391.431C187.483 391.431 185.979 392.583 185.835 394.567ZM195.145 405.943H196.585L200.969 388.151H199.513L195.145 405.943ZM202.898 397.319C202.898 400.679 203.73 403.223 206.93 403.223C210.114 403.223 210.946 400.679 210.946 397.319C210.946 394.007 210.114 391.479 206.93 391.479C203.73 391.479 202.898 394.007 202.898 397.319ZM209.506 397.319C209.506 399.815 209.202 401.895 206.93 401.895C204.642 401.895 204.338 399.815 204.338 397.319C204.338 394.919 204.642 392.807 206.93 392.807C209.202 392.807 209.506 394.919 209.506 397.319ZM213.361 391.639V398.167H214.737C215.121 397.255 215.969 396.647 217.137 396.647C218.817 396.647 219.665 397.607 219.665 399.255C219.665 400.839 218.881 402.023 217.121 402.023C215.761 402.023 214.817 401.303 214.545 400.087H213.121C213.409 401.959 214.801 403.255 217.105 403.255C219.809 403.255 221.057 401.463 221.057 399.223C221.057 397.431 220.161 395.399 217.345 395.399C216.209 395.399 215.185 395.911 214.705 396.567V392.919H220.321V391.639H213.361ZM222.848 405.943H224.288L228.672 388.151H227.216L222.848 405.943ZM230.425 403.095H238.121V401.879H232.617C234.681 400.199 237.785 397.751 237.785 394.871C237.785 392.727 236.377 391.447 234.201 391.447C232.121 391.447 230.569 392.727 230.473 395.191H231.881C231.945 393.735 232.713 392.695 234.217 392.695C235.785 392.695 236.345 393.655 236.345 394.935C236.345 397.303 233.465 399.607 230.425 402.055V403.095ZM239.805 397.319C239.805 400.679 240.637 403.223 243.837 403.223C247.021 403.223 247.852 400.679 247.852 397.319C247.852 394.007 247.021 391.479 243.837 391.479C240.637 391.479 239.805 394.007 239.805 397.319ZM246.413 397.319C246.413 399.815 246.109 401.895 243.837 401.895C241.549 401.895 241.245 399.815 241.245 397.319C241.245 394.919 241.549 392.807 243.837 392.807C246.109 392.807 246.413 394.919 246.413 397.319ZM249.675 403.095H257.371V401.879H251.867C253.931 400.199 257.035 397.751 257.035 394.871C257.035 392.727 255.627 391.447 253.451 391.447C251.371 391.447 249.819 392.727 249.723 395.191H251.131C251.195 393.735 251.963 392.695 253.467 392.695C255.035 392.695 255.595 393.655 255.595 394.935C255.595 397.303 252.715 399.607 249.675 402.055V403.095ZM259.055 397.319C259.055 400.679 259.887 403.223 263.087 403.223C266.271 403.223 267.102 400.679 267.102 397.319C267.102 394.007 266.271 391.479 263.087 391.479C259.887 391.479 259.055 394.007 259.055 397.319ZM265.663 397.319C265.663 399.815 265.359 401.895 263.087 401.895C260.799 401.895 260.495 399.815 260.495 397.319C260.495 394.919 260.799 392.807 263.087 392.807C265.359 392.807 265.663 394.919 265.663 397.319Z" fill="#4D4D4D"/>
<path d="M32 567.163C33.6569 567.163 35 565.797 35 564.113C35 562.429 33.6569 561.064 32 561.064C30.3431 561.064 29 562.429 29 564.113C29 565.797 30.3431 567.163 32 567.163Z" stroke="#4E9C81" stroke-width="2" stroke-linecap="round" stroke-linejoin="round"/>
<path d="M32 555.982C29.8783 555.982 27.8434 556.839 26.3431 558.364C24.8429 559.888 24 561.957 24 564.113C24 566.036 24.402 567.295 25.5 568.687L32 576.31L38.5 568.687C39.598 567.295 40 566.036 40 564.113C40 561.957 39.1571 559.888 37.6569 558.364C36.1566 556.839 34.1217 555.982 32 555.982V555.982Z" stroke="#4E9C81" stroke-width="2" stroke-linecap="round" stroke-linejoin="round"/>
<path d="M63.584 473.353H57.104V484.537H63.584V482.713H59.344V479.753H63.104V477.977H59.344V475.177H63.584V473.353ZM70.5156 484.537H73.0436L70.0996 480.089L73.0116 475.673H70.6116L68.9796 478.409L67.1716 475.673H64.6436L67.5716 480.089L64.6756 484.537H67.0756L68.6916 481.785L70.5156 484.537ZM76.5003 476.953V475.673H74.2603V488.761H76.5003V483.273C77.0443 483.993 78.0363 484.681 79.4283 484.681C81.7003 484.681 83.4763 482.841 83.4763 480.073C83.4763 477.305 81.7003 475.529 79.4283 475.529C78.0523 475.529 77.0283 476.201 76.5003 476.953ZM81.1883 480.073C81.1883 481.753 80.0523 482.713 78.8363 482.713C77.6363 482.713 76.5003 481.785 76.5003 480.105C76.5003 478.425 77.6363 477.497 78.8363 477.497C80.0523 477.497 81.1883 478.393 81.1883 480.073ZM88.912 477.369C90.064 477.369 90.992 478.105 91.024 479.273H86.816C86.992 478.057 87.84 477.369 88.912 477.369ZM93.12 481.753H90.704C90.416 482.345 89.888 482.825 88.928 482.825C87.808 482.825 86.912 482.089 86.8 480.777H93.28C93.328 480.489 93.344 480.201 93.344 479.913C93.344 477.273 91.536 475.529 88.976 475.529C86.352 475.529 84.528 477.305 84.528 480.105C84.528 482.889 86.4 484.681 88.976 484.681C91.168 484.681 92.64 483.385 93.12 481.753ZM94.403 480.105C94.403 482.889 96.227 484.681 98.787 484.681C100.995 484.681 102.483 483.433 102.963 481.545H100.547C100.275 482.345 99.699 482.761 98.771 482.761C97.523 482.761 96.691 481.833 96.691 480.105C96.691 478.377 97.523 477.433 98.771 477.433C99.699 477.433 100.291 477.913 100.547 478.665H102.963C102.483 476.681 100.995 475.529 98.787 475.529C96.227 475.529 94.403 477.321 94.403 480.105ZM104.956 481.785C104.956 483.817 106.092 484.537 107.788 484.537H109.196V482.649H108.156C107.452 482.649 107.212 482.393 107.212 481.801V477.513H109.196V475.673H107.212V473.481H104.956V475.673H103.9V477.513H104.956V481.785ZM110.231 480.073C110.231 482.841 112.023 484.681 114.263 484.681C115.671 484.681 116.679 484.009 117.207 483.241V484.537H119.463V475.673H117.207V476.937C116.679 476.201 115.703 475.529 114.279 475.529C112.023 475.529 110.231 477.305 110.231 480.073ZM117.207 480.105C117.207 481.785 116.087 482.713 114.855 482.713C113.655 482.713 112.519 481.753 112.519 480.073C112.519 478.393 113.655 477.497 114.855 477.497C116.087 477.497 117.207 478.425 117.207 480.105ZM122.003 481.785C122.003 483.817 123.139 484.537 124.835 484.537H126.243V482.649H125.203C124.499 482.649 124.259 482.393 124.259 481.801V477.513H126.243V475.673H124.259V473.481H122.003V475.673H120.947V477.513H122.003V481.785ZM127.854 484.537H130.094V475.673H127.854V484.537ZM128.99 474.617C129.774 474.617 130.366 474.041 130.366 473.305C130.366 472.569 129.774 471.993 128.99 471.993C128.19 471.993 127.614 472.569 127.614 473.305C127.614 474.041 128.19 474.617 128.99 474.617ZM131.363 475.673L134.627 484.537H137.347L140.627 475.673H138.243L136.003 482.473L133.763 475.673H131.363ZM141.309 480.073C141.309 482.841 143.101 484.681 145.341 484.681C146.749 484.681 147.757 484.009 148.285 483.241V484.537H150.541V475.673H148.285V476.937C147.757 476.201 146.781 475.529 145.357 475.529C143.101 475.529 141.309 477.305 141.309 480.073ZM148.285 480.105C148.285 481.785 147.165 482.713 145.933 482.713C144.733 482.713 143.597 481.753 143.597 480.073C143.597 478.393 144.733 477.497 145.933 477.497C147.165 477.497 148.285 478.425 148.285 480.105ZM155.965 480.073C155.965 482.841 157.758 484.681 160.014 484.681C161.406 484.681 162.398 484.041 162.926 483.225V484.537H165.198V472.697H162.926V476.905C162.318 476.073 161.198 475.529 160.03 475.529C157.758 475.529 155.965 477.305 155.965 480.073ZM162.942 480.105C162.942 481.785 161.822 482.713 160.59 482.713C159.39 482.713 158.254 481.753 158.254 480.073C158.254 478.393 159.39 477.497 160.59 477.497C161.822 477.497 162.942 478.425 162.942 480.105ZM171.193 477.369C172.345 477.369 173.273 478.105 173.305 479.273H169.097C169.273 478.057 170.121 477.369 171.193 477.369ZM175.401 481.753H172.985C172.697 482.345 172.169 482.825 171.209 482.825C170.089 482.825 169.193 482.089 169.081 480.777H175.561C175.609 480.489 175.625 480.201 175.625 479.913C175.625 477.273 173.817 475.529 171.257 475.529C168.633 475.529 166.809 477.305 166.809 480.105C166.809 482.889 168.681 484.681 171.257 484.681C173.449 484.681 174.921 483.385 175.401 481.753ZM183.313 480.121C183.313 478.409 184.113 477.897 185.441 477.897H186.033V475.545C184.801 475.545 183.873 476.137 183.313 477.049V475.673H181.073V484.537H183.313V480.121ZM191.35 477.369C192.502 477.369 193.43 478.105 193.462 479.273H189.254C189.43 478.057 190.278 477.369 191.35 477.369ZM195.558 481.753H193.142C192.854 482.345 192.326 482.825 191.366 482.825C190.246 482.825 189.35 482.089 189.238 480.777H195.718C195.766 480.489 195.782 480.201 195.782 479.913C195.782 477.273 193.974 475.529 191.414 475.529C188.789 475.529 186.965 477.305 186.965 480.105C186.965 482.889 188.838 484.681 191.414 484.681C193.606 484.681 195.078 483.385 195.558 481.753ZM196.84 480.105C196.84 482.889 198.664 484.681 201.225 484.681C203.433 484.681 204.921 483.433 205.401 481.545H202.985C202.713 482.345 202.137 482.761 201.209 482.761C199.961 482.761 199.129 481.833 199.129 480.105C199.129 478.377 199.961 477.433 201.209 477.433C202.137 477.433 202.729 477.913 202.985 478.665H205.401C204.921 476.681 203.433 475.529 201.225 475.529C198.664 475.529 196.84 477.321 196.84 480.105ZM210.85 477.369C212.002 477.369 212.93 478.105 212.962 479.273H208.754C208.93 478.057 209.778 477.369 210.85 477.369ZM215.058 481.753H212.642C212.354 482.345 211.826 482.825 210.866 482.825C209.746 482.825 208.85 482.089 208.738 480.777H215.218C215.266 480.489 215.282 480.201 215.282 479.913C215.282 477.273 213.474 475.529 210.914 475.529C208.289 475.529 206.465 477.305 206.465 480.105C206.465 482.889 208.338 484.681 210.914 484.681C213.106 484.681 214.578 483.385 215.058 481.753ZM219.157 476.969V472.697H216.917V484.537H219.157V483.273C219.701 484.041 220.693 484.681 222.085 484.681C224.357 484.681 226.133 482.841 226.133 480.073C226.133 477.305 224.357 475.529 222.085 475.529C220.741 475.529 219.701 476.153 219.157 476.969ZM223.845 480.073C223.845 481.753 222.709 482.713 221.493 482.713C220.293 482.713 219.157 481.785 219.157 480.105C219.157 478.425 220.293 477.497 221.493 477.497C222.709 477.497 223.845 478.393 223.845 480.073ZM227.76 484.537H230V475.673H227.76V484.537ZM228.896 474.617C229.68 474.617 230.272 474.041 230.272 473.305C230.272 472.569 229.68 471.993 228.896 471.993C228.096 471.993 227.52 472.569 227.52 473.305C227.52 474.041 228.096 474.617 228.896 474.617ZM244.613 484.537H246.853V479.337C246.853 476.889 245.349 475.545 243.221 475.545C241.925 475.545 240.757 476.233 240.181 477.241C239.573 476.137 238.437 475.545 237.061 475.545C235.957 475.545 235.013 476.009 234.453 476.745V475.673H232.213V484.537H234.453V479.641C234.453 478.233 235.237 477.497 236.453 477.497C237.637 477.497 238.421 478.233 238.421 479.641V484.537H240.661V479.641C240.661 478.233 241.445 477.497 242.645 477.497C243.829 477.497 244.613 478.233 244.613 479.641V484.537ZM252.787 477.369C253.939 477.369 254.867 478.105 254.899 479.273H250.691C250.867 478.057 251.715 477.369 252.787 477.369ZM256.995 481.753H254.579C254.291 482.345 253.763 482.825 252.803 482.825C251.683 482.825 250.787 482.089 250.675 480.777H257.155C257.203 480.489 257.219 480.201 257.219 479.913C257.219 477.273 255.411 475.529 252.851 475.529C250.227 475.529 248.403 477.305 248.403 480.105C248.403 482.889 250.275 484.681 252.851 484.681C255.043 484.681 256.515 483.385 256.995 481.753ZM265.062 484.537H267.302V479.337C267.302 476.889 265.83 475.545 263.766 475.545C262.63 475.545 261.67 476.025 261.094 476.777V475.673H258.854V484.537H261.094V479.641C261.094 478.217 261.878 477.449 263.094 477.449C264.278 477.449 265.062 478.217 265.062 479.641V484.537ZM269.784 481.785C269.784 483.817 270.92 484.537 272.616 484.537H274.024V482.649H272.984C272.28 482.649 272.04 482.393 272.04 481.801V477.513H274.024V475.673H272.04V473.481H269.784V475.673H268.728V477.513H269.784V481.785ZM284.195 480.105C284.195 477.305 282.195 475.529 279.635 475.529C277.075 475.529 275.075 477.305 275.075 480.105C275.075 482.889 277.011 484.681 279.571 484.681C282.147 484.681 284.195 482.889 284.195 480.105ZM277.347 480.105C277.347 478.329 278.419 477.481 279.603 477.481C280.787 477.481 281.891 478.329 281.891 480.105C281.891 481.865 280.755 482.729 279.571 482.729C278.371 482.729 277.347 481.865 277.347 480.105ZM288.19 483.337C288.19 482.601 287.614 482.025 286.83 482.025C286.014 482.025 285.438 482.601 285.438 483.337C285.438 484.073 286.014 484.649 286.83 484.649C287.614 484.649 288.19 484.073 288.19 483.337ZM288.19 476.713C288.19 475.977 287.614 475.401 286.83 475.401C286.014 475.401 285.438 475.977 285.438 476.713C285.438 477.449 286.014 478.025 286.83 478.025C287.614 478.025 288.19 477.449 288.19 476.713ZM293.71 475.881H295.134C295.278 474.761 296.094 473.993 297.454 473.993C298.846 473.993 299.582 474.761 299.582 475.865C299.582 477.209 298.542 477.801 296.606 477.817H296.222V479.033H296.59C298.67 479.033 299.806 479.657 299.806 481.289C299.806 482.473 299.07 483.385 297.518 483.385C295.982 483.385 295.086 482.441 294.942 481.209H293.534C293.71 483.449 295.342 484.617 297.534 484.617C299.95 484.617 301.198 483.209 301.198 481.417C301.198 479.753 300.286 478.761 298.942 478.441V478.361C300.158 478.089 300.99 477.049 300.99 475.721C300.99 474.057 299.758 472.745 297.502 472.745C295.358 472.745 293.854 473.897 293.71 475.881ZM304.316 484.537H305.788V472.969H302.78V474.297H304.316V484.537ZM308.145 487.257H309.585L313.969 469.465H312.513L308.145 487.257ZM315.898 478.633C315.898 481.993 316.73 484.537 319.93 484.537C323.114 484.537 323.946 481.993 323.946 478.633C323.946 475.321 323.114 472.793 319.93 472.793C316.73 472.793 315.898 475.321 315.898 478.633ZM322.506 478.633C322.506 481.129 322.202 483.209 319.93 483.209C317.642 483.209 317.338 481.129 317.338 478.633C317.338 476.233 317.642 474.121 319.93 474.121C322.202 474.121 322.506 476.233 322.506 478.633ZM327.097 484.537H328.569V472.969H325.561V474.297H327.097V484.537ZM330.926 487.257H332.366L336.75 469.465H335.294L330.926 487.257ZM338.504 484.409H346.2V483.193H340.696C342.76 481.513 345.864 479.065 345.864 476.185C345.864 474.041 344.456 472.761 342.28 472.761C340.2 472.761 338.648 474.041 338.552 476.505H339.96C340.024 475.049 340.792 474.009 342.296 474.009C343.864 474.009 344.424 474.969 344.424 476.249C344.424 478.617 341.544 480.921 338.504 483.369V484.409ZM347.883 478.633C347.883 481.993 348.715 484.537 351.915 484.537C355.099 484.537 355.931 481.993 355.931 478.633C355.931 475.321 355.099 472.793 351.915 472.793C348.715 472.793 347.883 475.321 347.883 478.633ZM354.491 478.633C354.491 481.129 354.187 483.209 351.915 483.209C349.627 483.209 349.323 481.129 349.323 478.633C349.323 476.233 349.627 474.121 351.915 474.121C354.187 474.121 354.491 476.233 354.491 478.633ZM357.754 484.409H365.45V483.193H359.946C362.01 481.513 365.114 479.065 365.114 476.185C365.114 474.041 363.706 472.761 361.53 472.761C359.45 472.761 357.898 474.041 357.802 476.505H359.21C359.274 475.049 360.042 474.009 361.546 474.009C363.114 474.009 363.674 474.969 363.674 476.249C363.674 478.617 360.794 480.921 357.754 483.369V484.409ZM368.285 484.537H369.757V472.969H366.749V474.297H368.285V484.537Z" fill="#4D4D4D"/>
<path d="M63.024 564.253C63.024 565.261 62.464 565.917 61.216 565.917H59.344V562.637H61.216C62.464 562.637 63.024 563.261 63.024 564.253ZM57.104 560.781V571.949H59.344V567.597H60.4L62.864 571.949H65.456L62.784 567.421C64.576 566.941 65.328 565.565 65.328 564.205C65.328 562.333 63.984 560.781 61.296 560.781H57.104ZM71.162 564.781C72.314 564.781 73.242 565.517 73.274 566.685H69.066C69.242 565.469 70.09 564.781 71.162 564.781ZM75.37 569.165H72.954C72.666 569.757 72.138 570.237 71.178 570.237C70.058 570.237 69.162 569.501 69.05 568.189H75.53C75.578 567.901 75.594 567.613 75.594 567.325C75.594 564.685 73.786 562.941 71.226 562.941C68.602 562.941 66.778 564.717 66.778 567.517C66.778 570.301 68.65 572.093 71.226 572.093C73.418 572.093 74.89 570.797 75.37 569.165ZM76.653 567.485C76.653 570.253 78.445 572.093 80.701 572.093C82.093 572.093 83.101 571.405 83.629 570.637V572.013C83.629 573.661 82.669 574.365 81.437 574.365C80.317 574.365 79.485 573.837 79.261 573.037H77.037C77.261 575.069 79.005 576.317 81.501 576.317C84.413 576.317 85.885 574.413 85.885 572.013V563.085H83.629V564.349C83.101 563.581 82.093 562.941 80.701 562.941C78.445 562.941 76.653 564.717 76.653 567.485ZM83.629 567.517C83.629 569.197 82.509 570.125 81.277 570.125C80.077 570.125 78.941 569.165 78.941 567.485C78.941 565.805 80.077 564.909 81.277 564.909C82.509 564.909 83.629 565.837 83.629 567.517ZM88.0728 571.949H90.3128V563.085H88.0728V571.949ZM89.2088 562.029C89.9928 562.029 90.5848 561.453 90.5848 560.717C90.5848 559.981 89.9928 559.405 89.2088 559.405C88.4088 559.405 87.8328 559.981 87.8328 560.717C87.8328 561.453 88.4088 562.029 89.2088 562.029ZM91.9499 567.485C91.9499 570.253 93.7419 572.093 95.9819 572.093C97.3899 572.093 98.3979 571.421 98.9259 570.653V571.949H101.182V563.085H98.9259V564.349C98.3979 563.613 97.4219 562.941 95.9979 562.941C93.7419 562.941 91.9499 564.717 91.9499 567.485ZM98.9259 567.517C98.9259 569.197 97.8059 570.125 96.5739 570.125C95.3739 570.125 94.2379 569.165 94.2379 567.485C94.2379 565.805 95.3739 564.909 96.5739 564.909C97.8059 564.909 98.9259 565.837 98.9259 567.517ZM93.9979 562.237H95.1819C95.2619 561.757 95.5179 561.533 95.8859 561.533C96.5259 561.533 96.9419 562.253 97.8539 562.253C98.8779 562.253 99.6299 561.613 99.8379 560.157H98.6379C98.5739 560.637 98.3179 560.845 97.9499 560.845C97.3099 560.845 96.8939 560.141 95.9819 560.141C94.9579 560.141 94.2059 560.781 93.9979 562.237ZM111.93 567.517C111.93 564.717 109.93 562.941 107.37 562.941C104.81 562.941 102.81 564.717 102.81 567.517C102.81 570.301 104.746 572.093 107.306 572.093C109.882 572.093 111.93 570.301 111.93 567.517ZM105.082 567.517C105.082 565.741 106.154 564.893 107.338 564.893C108.522 564.893 109.626 565.741 109.626 567.517C109.626 569.277 108.49 570.141 107.306 570.141C106.106 570.141 105.082 569.277 105.082 567.517ZM115.925 570.749C115.925 570.013 115.349 569.437 114.565 569.437C113.749 569.437 113.173 570.013 113.173 570.749C113.173 571.485 113.749 572.061 114.565 572.061C115.349 572.061 115.925 571.485 115.925 570.749ZM115.925 564.125C115.925 563.389 115.349 562.813 114.565 562.813C113.749 562.813 113.173 563.389 113.173 564.125C113.173 564.861 113.749 565.437 114.565 565.437C115.349 565.437 115.925 564.861 115.925 564.125ZM128.964 568.909C128.964 564.781 122.948 566.573 122.948 563.693C122.948 562.493 123.892 561.869 125.092 561.901C126.452 561.917 127.156 562.765 127.252 563.517H128.852C128.676 561.821 127.284 560.653 125.156 560.653C122.948 560.653 121.46 561.901 121.46 563.741C121.46 567.885 127.492 565.965 127.492 568.973C127.492 570.029 126.66 570.829 125.252 570.829C123.7 570.829 123.044 569.901 122.948 568.973H121.396C121.428 570.813 123.012 572.061 125.252 572.061C127.668 572.061 128.964 570.493 128.964 568.909ZM134.835 564.269C136.339 564.269 137.619 565.213 137.603 566.925H132.067C132.227 565.213 133.411 564.269 134.835 564.269ZM138.931 569.245H137.363C137.043 570.189 136.211 570.861 134.899 570.861C133.411 570.861 132.163 569.885 132.051 568.109H139.059C139.091 567.805 139.107 567.549 139.107 567.229C139.107 564.829 137.443 563.037 134.899 563.037C132.339 563.037 130.563 564.781 130.563 567.549C130.563 570.333 132.403 572.093 134.899 572.093C137.075 572.093 138.483 570.845 138.931 569.245ZM142.485 567.181C142.485 565.149 143.541 564.525 144.933 564.525H145.317V563.021C143.925 563.021 142.981 563.629 142.485 564.605V563.181H141.029V571.949H142.485V567.181ZM147.318 569.549C147.318 571.309 148.198 571.949 149.75 571.949H151.062V570.717H149.99C149.094 570.717 148.774 570.413 148.774 569.549V564.381H151.062V563.181H148.774V560.973H147.318V563.181H146.182V564.381H147.318V569.549ZM152.282 567.533C152.282 570.253 154.09 572.093 156.426 572.093C158.042 572.093 159.178 571.261 159.706 570.317V571.949H161.178V563.181H159.706V564.781C159.194 563.869 158.074 563.037 156.442 563.037C154.09 563.037 152.282 564.797 152.282 567.533ZM159.706 567.549C159.706 569.613 158.33 570.813 156.73 570.813C155.13 570.813 153.77 569.597 153.77 567.533C153.77 565.469 155.13 564.301 156.73 564.301C158.33 564.301 159.706 565.517 159.706 567.549ZM154.666 562.237H155.514C155.578 561.757 155.85 561.533 156.202 561.533C156.842 561.533 157.162 562.269 158.026 562.269C158.858 562.269 159.498 561.693 159.626 560.605H158.794C158.73 561.069 158.442 561.293 158.09 561.293C157.434 561.293 157.114 560.557 156.266 560.557C155.434 560.557 154.826 561.133 154.666 562.237ZM171.958 567.549C171.958 564.781 170.022 563.037 167.526 563.037C165.046 563.037 163.094 564.781 163.094 567.549C163.094 570.333 164.982 572.093 167.462 572.093C169.958 572.093 171.958 570.333 171.958 567.549ZM164.582 567.549C164.582 565.341 165.974 564.301 167.51 564.301C169.014 564.301 170.47 565.341 170.47 567.549C170.47 569.773 168.982 570.813 167.462 570.813C165.942 570.813 164.582 569.773 164.582 567.549ZM179.233 563.181H173.329V564.365H177.553L173.297 570.749V571.949H179.265V570.749H174.961L179.233 564.365V563.181ZM181.154 571.949H182.61V563.181H181.154V571.949ZM181.906 561.757C182.434 561.757 182.866 561.325 182.866 560.765C182.866 560.205 182.434 559.773 181.906 559.773C181.346 559.773 180.914 560.205 180.914 560.765C180.914 561.325 181.346 561.757 181.906 561.757ZM191.507 571.949H192.947V566.781C192.947 564.269 191.395 563.021 189.363 563.021C188.179 563.021 187.123 563.517 186.547 564.429V563.181H185.091V571.949H186.547V567.101C186.547 565.213 187.571 564.285 189.059 564.285C190.531 564.285 191.507 565.197 191.507 566.989V571.949ZM195.326 571.949H196.782V567.101C196.782 565.213 197.806 564.285 199.294 564.285C200.766 564.285 201.742 565.197 201.742 566.989V571.949H203.182V566.781C203.182 564.269 201.63 563.021 199.678 563.021C198.446 563.021 197.358 563.517 196.782 564.445V560.109H195.326V571.949ZM213.88 567.549C213.88 564.781 211.944 563.037 209.448 563.037C206.968 563.037 205.016 564.781 205.016 567.549C205.016 570.333 206.904 572.093 209.384 572.093C211.88 572.093 213.88 570.333 213.88 567.549ZM206.504 567.549C206.504 565.341 207.896 564.301 209.432 564.301C210.936 564.301 212.392 565.341 212.392 567.549C212.392 569.773 210.904 570.813 209.384 570.813C207.864 570.813 206.504 569.773 206.504 567.549ZM219.756 566.701H226.14V565.469H219.756V566.701ZM240.386 568.909C240.386 564.781 234.37 566.573 234.37 563.693C234.37 562.493 235.314 561.869 236.514 561.901C237.874 561.917 238.578 562.765 238.674 563.517H240.274C240.098 561.821 238.706 560.653 236.578 560.653C234.37 560.653 232.882 561.901 232.882 563.741C232.882 567.885 238.914 565.965 238.914 568.973C238.914 570.029 238.082 570.829 236.674 570.829C235.122 570.829 234.466 569.901 234.37 568.973H232.818C232.85 570.813 234.434 572.061 236.674 572.061C239.09 572.061 240.386 570.493 240.386 568.909ZM241.985 567.533C241.985 570.253 243.793 572.093 246.129 572.093C247.745 572.093 248.881 571.261 249.409 570.317V571.949H250.881V563.181H249.409V564.781C248.897 563.869 247.777 563.037 246.145 563.037C243.793 563.037 241.985 564.797 241.985 567.533ZM249.409 567.549C249.409 569.613 248.033 570.813 246.433 570.813C244.833 570.813 243.473 569.597 243.473 567.533C243.473 565.469 244.833 564.301 246.433 564.301C248.033 564.301 249.409 565.517 249.409 567.549ZM244.369 562.237H245.217C245.281 561.757 245.553 561.533 245.905 561.533C246.545 561.533 246.865 562.269 247.729 562.269C248.561 562.269 249.201 561.693 249.329 560.605H248.497C248.433 561.069 248.145 561.293 247.793 561.293C247.137 561.293 246.817 560.557 245.969 560.557C245.137 560.557 244.529 561.133 244.369 562.237ZM261.661 567.549C261.661 564.781 259.725 563.037 257.229 563.037C254.749 563.037 252.797 564.781 252.797 567.549C252.797 570.333 254.685 572.093 257.165 572.093C259.661 572.093 261.661 570.333 261.661 567.549ZM254.285 567.549C254.285 565.341 255.677 564.301 257.213 564.301C258.717 564.301 260.173 565.341 260.173 567.549C260.173 569.773 258.685 570.813 257.165 570.813C255.645 570.813 254.285 569.773 254.285 567.549ZM269.297 566.093V561.997H271.441C273.105 561.997 273.809 562.765 273.809 564.061C273.809 565.309 273.105 566.093 271.441 566.093H269.297ZM275.297 564.061C275.297 562.237 274.065 560.797 271.441 560.797H267.841V571.949H269.297V567.293H271.441C274.209 567.293 275.297 565.757 275.297 564.061ZM276.563 567.533C276.563 570.253 278.371 572.093 280.707 572.093C282.323 572.093 283.459 571.261 283.987 570.317V571.949H285.459V563.181H283.987V564.781C283.475 563.869 282.355 563.037 280.723 563.037C278.371 563.037 276.563 564.797 276.563 567.533ZM283.987 567.549C283.987 569.613 282.611 570.813 281.011 570.813C279.411 570.813 278.051 569.597 278.051 567.533C278.051 565.469 279.411 564.301 281.011 564.301C282.611 564.301 283.987 565.517 283.987 567.549ZM295.696 563.181H294.24V567.997C294.24 569.885 293.232 570.813 291.728 570.813C290.256 570.813 289.28 569.901 289.28 568.125V563.181H287.84V568.317C287.84 570.829 289.424 572.077 291.44 572.077C292.608 572.077 293.68 571.565 294.24 570.653V571.949H295.696V563.181ZM298.154 571.949H299.61V560.109H298.154V571.949ZM310.411 567.549C310.411 564.781 308.475 563.037 305.979 563.037C303.499 563.037 301.547 564.781 301.547 567.549C301.547 570.333 303.435 572.093 305.915 572.093C308.411 572.093 310.411 570.333 310.411 567.549ZM303.035 567.549C303.035 565.341 304.427 564.301 305.963 564.301C307.467 564.301 308.923 565.341 308.923 567.549C308.923 569.773 307.435 570.813 305.915 570.813C304.395 570.813 303.035 569.773 303.035 567.549Z" fill="#4D4D4D"/>
<path d="M31.568 72.7999C31.568 74.0159 30.704 74.7359 29.264 74.7359H26.688V70.7999H29.216C30.64 70.7999 31.568 71.5679 31.568 72.7999ZM31.28 67.7919C31.28 68.9279 30.496 69.5999 29.136 69.5999H26.688V65.9839H29.104C30.528 65.9839 31.28 66.6879 31.28 67.7919ZM33.024 72.9439C33.024 71.5679 32.032 70.3999 30.816 70.1919C31.888 69.8399 32.768 69.0239 32.768 67.6159C32.768 66.0639 31.584 64.7839 29.232 64.7839H25.232V75.9359H29.392C31.696 75.9359 33.024 74.6239 33.024 72.9439ZM43.3645 71.5359C43.3645 68.7679 41.4285 67.0239 38.9325 67.0239C36.4525 67.0239 34.5005 68.7679 34.5005 71.5359C34.5005 74.3199 36.3885 76.0799 38.8685 76.0799C41.3645 76.0799 43.3645 74.3199 43.3645 71.5359ZM35.9885 71.5359C35.9885 69.3279 37.3805 68.2879 38.9165 68.2879C40.4205 68.2879 41.8765 69.3279 41.8765 71.5359C41.8765 73.7599 40.3885 74.7999 38.8685 74.7999C37.3485 74.7999 35.9885 73.7599 35.9885 71.5359ZM51.6949 75.9359H53.1349V70.7679C53.1349 68.2559 51.5829 67.0079 49.5509 67.0079C48.3669 67.0079 47.3109 67.5039 46.7349 68.4159V67.1679H45.2789V75.9359H46.7349V71.0879C46.7349 69.1999 47.7589 68.2719 49.2469 68.2719C50.7189 68.2719 51.6949 69.1839 51.6949 70.9759V75.9359ZM61.8173 73.5519C61.7533 70.4159 56.6653 71.5519 56.6653 69.4719C56.6653 68.7679 57.3053 68.2559 58.3773 68.2559C59.5453 68.2559 60.2173 68.8959 60.2813 69.7759H61.7373C61.6413 68.0639 60.3613 67.0239 58.4253 67.0239C56.4733 67.0239 55.2093 68.1279 55.2093 69.4719C55.2093 72.7359 60.3933 71.5999 60.3933 73.5519C60.3933 74.2719 59.7533 74.8479 58.6013 74.8479C57.3693 74.8479 56.6173 74.2079 56.5373 73.3599H55.0333C55.1293 74.9599 56.5693 76.0799 58.6173 76.0799C60.5533 76.0799 61.8173 74.9919 61.8173 73.5519ZM71.6486 67.1679H70.1926V71.9839C70.1926 73.8719 69.1846 74.7999 67.6806 74.7999C66.2086 74.7999 65.2326 73.8879 65.2326 72.1119V67.1679H63.7926V72.3039C63.7926 74.8159 65.3766 76.0639 67.3926 76.0639C68.5606 76.0639 69.6326 75.5519 70.1926 74.6399V75.9359H71.6486V67.1679ZM73.563 71.5359C73.563 74.3199 75.339 76.0799 77.835 76.0799C80.011 76.0799 81.435 74.8639 81.883 73.1199H80.315C79.995 74.2239 79.131 74.8479 77.835 74.8479C76.235 74.8479 75.051 73.7119 75.051 71.5359C75.051 69.3919 76.235 68.2559 77.835 68.2559C79.131 68.2559 80.011 68.9279 80.315 69.9839H81.883C81.435 68.1439 80.011 67.0239 77.835 67.0239C75.339 67.0239 73.563 68.7839 73.563 71.5359ZM85.2818 71.1679C85.2818 69.1359 86.3378 68.5119 87.7298 68.5119H88.1138V67.0079C86.7218 67.0079 85.7778 67.6159 85.2818 68.5919V67.1679H83.8258V75.9359H85.2818V71.1679ZM98.1145 71.5359C98.1145 68.7679 96.1785 67.0239 93.6825 67.0239C91.2025 67.0239 89.2505 68.7679 89.2505 71.5359C89.2505 74.3199 91.1385 76.0799 93.6185 76.0799C96.1145 76.0799 98.1145 74.3199 98.1145 71.5359ZM90.7385 71.5359C90.7385 69.3279 92.1305 68.2879 93.6665 68.2879C95.1705 68.2879 96.6265 69.3279 96.6265 71.5359C96.6265 73.7599 95.1385 74.7999 93.6185 74.7999C92.0985 74.7999 90.7385 73.7599 90.7385 71.5359Z" fill="#4D4D4D"/>
<path d="M292.25 224.668C292.25 280.487 247.73 325.738 192.812 325.738C137.895 325.738 93.375 280.487 93.375 224.668C93.375 168.848 137.895 123.597 192.812 123.597C247.73 123.597 292.25 168.848 292.25 224.668ZM123.206 224.668C123.206 263.741 154.37 295.417 192.812 295.417C231.255 295.417 262.419 263.741 262.419 224.668C262.419 185.594 231.255 153.918 192.812 153.918C154.37 153.918 123.206 185.594 123.206 224.668Z" fill="#DAEAE0"/>
<path d="M192.338 124.855C192.338 119.333 196.825 114.807 202.324 115.325C218.764 116.875 234.684 122.236 248.837 131.051C265.841 141.642 279.631 156.806 288.685 174.866C297.738 192.926 301.702 213.18 300.137 233.387C298.573 253.594 291.541 272.967 279.819 289.366C268.098 305.764 252.143 318.548 233.719 326.305C215.295 334.062 195.119 336.489 175.423 333.318C155.726 330.147 137.276 321.502 122.112 308.338C109.43 297.329 99.4594 283.517 92.9305 268.015C90.8015 262.959 93.6946 257.341 98.9034 255.621L121.047 248.308C126.327 246.564 131.95 249.509 134.424 254.489C138.286 262.261 143.639 269.21 150.202 274.908C159.301 282.807 170.371 287.994 182.189 289.896C194.007 291.799 206.112 290.342 217.167 285.688C228.221 281.034 237.794 273.364 244.827 263.525C251.86 253.686 256.079 242.062 257.018 229.937C257.956 217.813 255.578 205.661 250.146 194.825C244.714 183.989 236.44 174.891 226.238 168.536C218.89 163.96 210.748 160.935 202.298 159.6C196.842 158.739 192.338 154.341 192.338 148.819V124.855Z" fill="url(#paint0_linear)"/>
<path d="M163.12 211.971V215.811H174.064L165.488 235.235H170.032L178.544 215.299V211.971H163.12ZM181.291 218.051H185.675C185.835 216.579 186.763 215.171 188.939 215.171C190.987 215.171 192.107 216.259 192.107 218.083C192.107 220.387 190.187 221.123 187.563 221.123H186.635V224.803H187.563C190.891 224.803 192.555 225.763 192.555 228.387C192.555 230.243 191.403 231.651 189.163 231.651C186.763 231.651 185.419 230.211 185.323 228.195H180.971C181.163 233.091 184.651 235.395 189.259 235.395C194.155 235.395 196.843 232.579 196.843 228.771C196.843 225.603 195.275 223.683 192.907 222.947V222.819C194.603 222.243 196.427 220.451 196.427 217.539C196.427 214.083 193.867 211.363 189.067 211.363C184.587 211.363 181.515 213.731 181.291 218.051ZM199.872 217.635C199.872 220.995 202.048 222.851 204.96 222.851C207.872 222.851 210.048 220.995 210.048 217.635C210.048 214.307 207.872 212.451 204.96 212.451C202.048 212.451 199.872 214.307 199.872 217.635ZM204.928 215.139C206.048 215.139 206.752 215.875 206.752 217.635C206.752 219.395 206.048 220.163 204.928 220.163C203.84 220.163 203.168 219.395 203.168 217.635C203.168 215.875 203.84 215.139 204.928 215.139ZM203.488 235.235H207.84L220.416 212.835H216.032L203.488 235.235ZM213.92 230.403C213.92 233.795 216.096 235.619 219.008 235.619C221.888 235.619 224.032 233.795 224.032 230.403C224.032 227.043 221.888 225.219 219.008 225.219C216.096 225.219 213.92 227.043 213.92 230.403ZM218.976 227.907C220.064 227.907 220.768 228.643 220.768 230.403C220.768 232.195 220.064 232.931 218.976 232.931C217.856 232.931 217.152 232.195 217.152 230.403C217.152 228.643 217.856 227.907 218.976 227.907Z" fill="#207567"/>
<line x1="28" y1="439.61" x2="384" y2="439.61" stroke="#C2CEBF"/>
<line x1="28" y1="520.924" x2="384" y2="520.924" stroke="#C2CEBF"/>
<g clip-path="url(#clip0)">
<path d="M41.1528 390.644H28.5139C27.5167 390.644 26.7083 391.403 26.7083 392.338V404.196C26.7083 405.132 27.5167 405.89 28.5139 405.89H41.1528C42.1499 405.89 42.9583 405.132 42.9583 404.196V392.338C42.9583 391.403 42.1499 390.644 41.1528 390.644Z" stroke="#4E9C81" stroke-width="2" stroke-linecap="round" stroke-linejoin="round"/>
<path d="M38.4445 388.95V392.338" stroke="#4E9C81" stroke-width="2" stroke-linecap="round" stroke-linejoin="round"/>
<path d="M31.2222 388.95V392.338" stroke="#4E9C81" stroke-width="2" stroke-linecap="round" stroke-linejoin="round"/>
<path d="M26.7083 395.726H42.9583" stroke="#4E9C81" stroke-width="2" stroke-linecap="round" stroke-linejoin="round"/>
</g>
<path d="M38 475.976L35 479.025" stroke="#4E9C81" stroke-width="2" stroke-linecap="round" stroke-linejoin="round"/>
<path d="M35 488.898C40.5228 488.898 45 484.348 45 478.734C45 473.12 40.5228 468.57 35 468.57C29.4772 468.57 25 473.12 25 478.734C25 484.348 29.4772 488.898 35 488.898Z" stroke="#4E9C81" stroke-width="2" stroke-linecap="round" stroke-linejoin="round"/>
<defs>
<linearGradient id="paint0_linear" x1="194.984" y1="114.855" x2="194.984" y2="334.671" gradientUnits="userSpaceOnUse">
<stop stop-color="#8DC3A7"/>
<stop offset="1" stop-color="#358873"/>
</linearGradient>
<clipPath id="clip0">
<rect width="21.6667" height="20.3284" fill="white" transform="translate(24 387.256)"/>
</clipPath>
</defs>
</svg>
