<svg width="116" height="32" viewBox="0 0 116 32" fill="none" xmlns="http://www.w3.org/2000/svg">
<path d="M16 22.4L7.46665 13.8667M16 32V14.9333V32ZM16 16V22.4V16ZM16 16C16 13.7368 15.1009 11.5663 13.5006 9.96601C11.9003 8.3657 9.72983 7.46665 7.46665 7.46665H1.06665V13.8667C1.06665 16.1298 1.9657 18.3003 3.56601 19.9006C5.16632 21.5009 7.3368 22.4 9.59998 22.4H16V16ZM16 16H22.4C24.6632 16 26.8337 15.1009 28.434 13.5006C30.0343 11.9003 30.9333 9.72983 30.9333 7.46665V1.06665H24.5333C22.2701 1.06665 20.0996 1.9657 18.4993 3.56601C16.899 5.16632 16 7.3368 16 9.59998V16ZM16 16L24.5333 7.46665L16 16Z" stroke="#DFEAE2" stroke-width="1.77778"/>
<path d="M52.909 21.7778H54.943V15.9278C54.943 13.1558 53.197 11.6978 50.875 11.6978C49.687 11.6978 48.589 12.1838 47.923 12.9938V11.8598H45.871V21.7778H47.923V16.2338C47.923 14.4158 48.913 13.4798 50.425 13.4798C51.919 13.4798 52.909 14.4158 52.909 16.2338V21.7778ZM72.4104 16.8098C72.4104 13.6958 70.1784 11.6978 67.3524 11.6978C64.5264 11.6978 62.2944 13.6958 62.2944 16.8098C62.2944 19.9238 64.4364 21.9398 67.2624 21.9398C70.1064 21.9398 72.4104 19.9238 72.4104 16.8098ZM64.3824 16.8098C64.3824 14.5598 65.7684 13.4798 67.3164 13.4798C68.8464 13.4798 70.3044 14.5598 70.3044 16.8098C70.3044 19.0598 68.7924 20.1578 67.2624 20.1578C65.7144 20.1578 64.3824 19.0598 64.3824 16.8098ZM93.8969 21.7778H95.9309V15.9278C95.9309 13.1558 94.1669 11.6978 91.8449 11.6978C90.4049 11.6978 89.0009 12.4538 88.3889 13.6598C87.7049 12.3638 86.3909 11.6978 84.8249 11.6978C83.6369 11.6978 82.5569 12.1838 81.8909 12.9938V11.8598H79.8389V21.7778H81.8909V16.2338C81.8909 14.4158 82.8809 13.4798 84.3929 13.4798C85.8869 13.4798 86.8769 14.4158 86.8769 16.2338V21.7778H88.9109V16.2338C88.9109 14.4158 89.9009 13.4798 91.4129 13.4798C92.9069 13.4798 93.8969 14.4158 93.8969 16.2338V21.7778ZM108.118 13.4258C109.648 13.4258 110.854 14.3978 110.89 15.9278H105.4C105.616 14.3618 106.732 13.4258 108.118 13.4258ZM112.762 18.8258H110.548C110.17 19.5998 109.468 20.2118 108.208 20.2118C106.696 20.2118 105.526 19.2218 105.382 17.5838H112.96C113.014 17.2418 113.032 16.9178 113.032 16.5758C113.032 13.6598 111.034 11.6978 108.208 11.6978C105.274 11.6978 103.258 13.6958 103.258 16.8098C103.258 19.9238 105.364 21.9398 108.208 21.9398C110.638 21.9398 112.204 20.5538 112.762 18.8258Z" fill="#DFEAE2"/>
</svg>
