<svg width="164" height="38" viewBox="0 0 164 38" fill="none" xmlns="http://www.w3.org/2000/svg">
<path d="M16 22.4L7.46671 13.8667M16 32V14.9333V32ZM16 16V22.4V16ZM16 16C16 13.7368 15.101 11.5663 13.5007 9.96601C11.9004 8.3657 9.72989 7.46665 7.46671 7.46665H1.06671V13.8667C1.06671 16.1298 1.96576 18.3003 3.56607 19.9006C5.16638 21.5009 7.33686 22.4 9.60004 22.4H16V16ZM16 16H22.4C24.6632 16 26.8337 15.1009 28.434 13.5006C30.0343 11.9003 30.9334 9.72983 30.9334 7.46665V1.06665H24.5334C22.2702 1.06665 20.0997 1.9657 18.4994 3.56601C16.8991 5.16632 16 7.3368 16 9.59998V16ZM16 16L24.5334 7.46665L16 16Z" stroke="#DFEAE2" stroke-width="1.77778"/>
<path d="M49.7917 22.126C48.9517 22.126 48.1957 21.982 47.5237 21.694C46.8517 21.394 46.3237 20.974 45.9397 20.434C45.5557 19.894 45.3637 19.264 45.3637 18.544H47.5597C47.6077 19.084 47.8177 19.528 48.1897 19.876C48.5737 20.224 49.1077 20.398 49.7917 20.398C50.4997 20.398 51.0517 20.23 51.4477 19.894C51.8437 19.546 52.0417 19.102 52.0417 18.562C52.0417 18.142 51.9157 17.8 51.6637 17.536C51.4237 17.272 51.1177 17.068 50.7457 16.924C50.3857 16.78 49.8817 16.624 49.2337 16.456C48.4177 16.24 47.7517 16.024 47.2357 15.808C46.7317 15.58 46.2997 15.232 45.9397 14.764C45.5797 14.296 45.3997 13.672 45.3997 12.892C45.3997 12.172 45.5797 11.542 45.9397 11.002C46.2997 10.462 46.8037 10.048 47.4517 9.76C48.0997 9.472 48.8497 9.328 49.7017 9.328C50.9137 9.328 51.9037 9.634 52.6717 10.246C53.4517 10.846 53.8837 11.674 53.9677 12.73H51.6997C51.6637 12.274 51.4477 11.884 51.0517 11.56C50.6557 11.236 50.1337 11.074 49.4857 11.074C48.8977 11.074 48.4177 11.224 48.0457 11.524C47.6737 11.824 47.4877 12.256 47.4877 12.82C47.4877 13.204 47.6017 13.522 47.8297 13.774C48.0697 14.014 48.3697 14.206 48.7297 14.35C49.0897 14.494 49.5817 14.65 50.2057 14.818C51.0337 15.046 51.7057 15.274 52.2217 15.502C52.7497 15.73 53.1937 16.084 53.5537 16.564C53.9257 17.032 54.1117 17.662 54.1117 18.454C54.1117 19.09 53.9377 19.69 53.5897 20.254C53.2537 20.818 52.7557 21.274 52.0957 21.622C51.4477 21.958 50.6797 22.126 49.7917 22.126ZM70.915 12.082V22H68.863V20.83C68.539 21.238 68.113 21.562 67.585 21.802C67.069 22.03 66.517 22.144 65.929 22.144C65.149 22.144 64.447 21.982 63.823 21.658C63.211 21.334 62.725 20.854 62.365 20.218C62.017 19.582 61.843 18.814 61.843 17.914V12.082H63.877V17.608C63.877 18.496 64.099 19.18 64.543 19.66C64.987 20.128 65.593 20.362 66.361 20.362C67.129 20.362 67.735 20.128 68.179 19.66C68.635 19.18 68.863 18.496 68.863 17.608V12.082H70.915ZM82.6225 22.162C81.8425 22.162 81.1405 22.024 80.5165 21.748C79.9045 21.46 79.4185 21.076 79.0585 20.596C78.6985 20.104 78.5065 19.558 78.4825 18.958H80.6065C80.6425 19.378 80.8405 19.732 81.2005 20.02C81.5725 20.296 82.0345 20.434 82.5865 20.434C83.1625 20.434 83.6065 20.326 83.9185 20.11C84.2425 19.882 84.4045 19.594 84.4045 19.246C84.4045 18.874 84.2245 18.598 83.8645 18.418C83.5165 18.238 82.9585 18.04 82.1905 17.824C81.4465 17.62 80.8405 17.422 80.3725 17.23C79.9045 17.038 79.4965 16.744 79.1485 16.348C78.8125 15.952 78.6445 15.43 78.6445 14.782C78.6445 14.254 78.8005 13.774 79.1125 13.342C79.4245 12.898 79.8685 12.55 80.4445 12.298C81.0325 12.046 81.7045 11.92 82.4605 11.92C83.5885 11.92 84.4945 12.208 85.1785 12.784C85.8745 13.348 86.2465 14.122 86.2945 15.106H84.2425C84.2065 14.662 84.0265 14.308 83.7025 14.044C83.3785 13.78 82.9405 13.648 82.3885 13.648C81.8485 13.648 81.4345 13.75 81.1465 13.954C80.8585 14.158 80.7145 14.428 80.7145 14.764C80.7145 15.028 80.8105 15.25 81.0025 15.43C81.1945 15.61 81.4285 15.754 81.7045 15.862C81.9805 15.958 82.3885 16.084 82.9285 16.24C83.6485 16.432 84.2365 16.63 84.6925 16.834C85.1605 17.026 85.5625 17.314 85.8985 17.698C86.2345 18.082 86.4085 18.592 86.4205 19.228C86.4205 19.792 86.2645 20.296 85.9525 20.74C85.6405 21.184 85.1965 21.532 84.6205 21.784C84.0565 22.036 83.3905 22.162 82.6225 22.162ZM96.4317 13.756V19.246C96.4317 19.618 96.5157 19.888 96.6837 20.056C96.8637 20.212 97.1637 20.29 97.5837 20.29H98.8437V22H97.2237C96.2997 22 95.5917 21.784 95.0997 21.352C94.6077 20.92 94.3617 20.218 94.3617 19.246V13.756H93.1917V12.082H94.3617V9.616H96.4317V12.082H98.8437V13.756H96.4317ZM115.225 16.798C115.225 17.17 115.201 17.506 115.153 17.806H107.575C107.635 18.598 107.929 19.234 108.457 19.714C108.985 20.194 109.633 20.434 110.401 20.434C111.505 20.434 112.285 19.972 112.741 19.048H114.955C114.655 19.96 114.109 20.71 113.317 21.298C112.537 21.874 111.565 22.162 110.401 22.162C109.453 22.162 108.601 21.952 107.845 21.532C107.101 21.1 106.513 20.5 106.081 19.732C105.661 18.952 105.451 18.052 105.451 17.032C105.451 16.012 105.655 15.118 106.063 14.35C106.483 13.57 107.065 12.97 107.809 12.55C108.565 12.13 109.429 11.92 110.401 11.92C111.337 11.92 112.171 12.124 112.903 12.532C113.635 12.94 114.205 13.516 114.613 14.26C115.021 14.992 115.225 15.838 115.225 16.798ZM113.083 16.15C113.071 15.394 112.801 14.788 112.273 14.332C111.745 13.876 111.091 13.648 110.311 13.648C109.603 13.648 108.997 13.876 108.493 14.332C107.989 14.776 107.689 15.382 107.593 16.15H113.083ZM127.648 11.92C128.428 11.92 129.124 12.082 129.736 12.406C130.36 12.73 130.846 13.21 131.194 13.846C131.542 14.482 131.716 15.25 131.716 16.15V22H129.682V16.456C129.682 15.568 129.46 14.89 129.016 14.422C128.572 13.942 127.966 13.702 127.198 13.702C126.43 13.702 125.818 13.942 125.362 14.422C124.918 14.89 124.696 15.568 124.696 16.456V22H122.644V12.082H124.696V13.216C125.032 12.808 125.458 12.49 125.974 12.262C126.502 12.034 127.06 11.92 127.648 11.92ZM142.128 13.756V19.246C142.128 19.618 142.212 19.888 142.38 20.056C142.56 20.212 142.86 20.29 143.28 20.29H144.54V22H142.92C141.996 22 141.288 21.784 140.796 21.352C140.304 20.92 140.058 20.218 140.058 19.246V13.756H138.888V12.082H140.058V9.616H142.128V12.082H144.54V13.756H142.128ZM151.147 16.996C151.147 16 151.351 15.118 151.759 14.35C152.179 13.582 152.743 12.988 153.451 12.568C154.171 12.136 154.963 11.92 155.827 11.92C156.607 11.92 157.285 12.076 157.861 12.388C158.449 12.688 158.917 13.066 159.265 13.522V12.082H161.335V22H159.265V20.524C158.917 20.992 158.443 21.382 157.843 21.694C157.243 22.006 156.559 22.162 155.791 22.162C154.939 22.162 154.159 21.946 153.451 21.514C152.743 21.07 152.179 20.458 151.759 19.678C151.351 18.886 151.147 17.992 151.147 16.996ZM159.265 17.032C159.265 16.348 159.121 15.754 158.833 15.25C158.557 14.746 158.191 14.362 157.735 14.098C157.279 13.834 156.787 13.702 156.259 13.702C155.731 13.702 155.239 13.834 154.783 14.098C154.327 14.35 153.955 14.728 153.667 15.232C153.391 15.724 153.253 16.312 153.253 16.996C153.253 17.68 153.391 18.28 153.667 18.796C153.955 19.312 154.327 19.708 154.783 19.984C155.251 20.248 155.743 20.38 156.259 20.38C156.787 20.38 157.279 20.248 157.735 19.984C158.191 19.72 158.557 19.336 158.833 18.832C159.121 18.316 159.265 17.716 159.265 17.032Z" fill="#DFEAE2"/>
</svg>
